<?xml version="1.0" encoding="UTF-8"?>
<svg id="Layer_5" data-name="Layer 5" xmlns="http://www.w3.org/2000/svg" viewBox="0 0 771 242">
  <defs>
    <style>
      .cls-1 {
        fill: #99e1d9;
      }

      .cls-2 {
        fill: #5b483e;
      }

      .cls-3 {
        fill: #3d3628;
        font-family: RodinProN-DB-83pv-RKSJ-H, 'FOT-Rodin ProN';
        font-size: 24px;
        letter-spacing: .02em;
      }
    </style>
  </defs>
  <path class="cls-2" d="m748,150.29v-.14c19.25-18.84,22-40.68,22-51.78,0-16.54-12.76-46.53-72-58-69.34-13.43-205.77-12-318.5-12-100,0-218.83-1.88-286.5,9C19.21,49.24,1,74.65,1,93.38c0,13.32.19,42.46,27.46,64.74,2.33,4.57,3.19,10.31.54,17.26-2.08,5.46-2.87,10.99-2.91,16.18-.14,2.64-.09,4.84-.09,6.32,0,7.94,8.03,25.14,40,31.5,62.54,12.44,188.97,11,319,11,14,0,256.8,1.09,320-11,33.94-6.49,38-23.3,38-31.5,0-.92-.02-2.3-.11-4.03.07-4.04-.31-8.3-1.38-12.6-.69-4.02-1.69-8.4-3.13-12.81-.13-6.95,3.35-12.28,7.26-16.06.41-.37.81-.73,1.2-1.1.39-.34.77-.66,1.16-.97Z"/>
  <path class="cls-1" d="m195,22.38c.67,5.73.02,13.43-14,19-15.31,6.08-45.17,5.42-70.14,8.34-25.83,3.02-59.86,9.66-74.86,5.66-13.67-3.65-13.36-13.48-14-19s3.23-14.47,17-20c15.32-6.15,41.6-7.13,66.79-10.07C130.74,3.39,163.7,0,180,2.38c14.95,2.19,14.33,14.27,15,20Z"/>
  <text class="cls-3" transform="translate(68.08 42.37) rotate(-6.92)"><tspan x="0" y="0">Hamid</tspan></text>
</svg>